Normalized EMG Linear Envelopes
nRows=116
nColumns=4

endheader
time	 med_gas_r	  soleus_r	 tib_ant_r	
3.36391	  0.073318	  0.064780	  0.015942	
3.43548	  0.077358	  0.054594	  0.018462	
3.50706	  0.081500	  0.051644	  0.019523	
3.57863	  0.085395	  0.056698	  0.019247	
3.6502	  0.087696	  0.064765	  0.018820	
3.72177	  0.088203	  0.070892	  0.018877	
3.79335	  0.088757	  0.073089	  0.019022	
3.86492	  0.089308	  0.071094	  0.018819	
3.93649	  0.087105	  0.065363	  0.018730	
4.00806	  0.082809	  0.057955	  0.019435	
4.07964	  0.081868	  0.052728	  0.020578	
4.15121	  0.086807	  0.051867	  0.021185	
4.22278	  0.092935	  0.053592	  0.020892	
4.29435	  0.094232	  0.055782	  0.019975	
4.36593	  0.090254	  0.058485	  0.018805	
4.4375	  0.085507	  0.060903	  0.017794	
4.50907	  0.083682	  0.060662	  0.017196	
4.58065	  0.083781	  0.057746	  0.016891	
4.65222	  0.082816	  0.054660	  0.016836	
4.72379	  0.080722	  0.052443	  0.017303	
4.79536	  0.079368	  0.050667	  0.018432	
4.86694	  0.078993	  0.049856	  0.020024	
4.93851	  0.078625	  0.050379	  0.021654	
5.01008	  0.077984	  0.051391	  0.022741	
5.08165	  0.077754	  0.052558	  0.022769	
5.15323	  0.078427	  0.054008	  0.021853	
5.2248	  0.079101	  0.054928	  0.021128	
5.29637	  0.078478	  0.054478	  0.021765	
5.36794	  0.076867	  0.053135	  0.023579	
5.43952	  0.076393	  0.052250	  0.025408	
5.51109	  0.078930	  0.052524	  0.026217	
5.58266	  0.083645	  0.053426	  0.025533	
5.65423	  0.087383	  0.054321	  0.023702	
5.72581	  0.086558	  0.055054	  0.021508	
5.79738	  0.078408	  0.055862	  0.019534	
5.86895	  0.065727	  0.057862	  0.018728	
5.94052	  0.064363	  0.063527	  0.021139	
6.0121	  0.104075	  0.078601	  0.029418	
6.08367	  0.210155	  0.111945	  0.045223	
6.15524	  0.365905	  0.165265	  0.066423	
6.22681	  0.505806	  0.224577	  0.086053	
6.29839	  0.576043	  0.271670	  0.097436	
6.36996	  0.586265	  0.300686	  0.100551	
6.44153	  0.582087	  0.317385	  0.100216	
6.5131	  0.591996	  0.327728	  0.099538	
6.58468	  0.616206	  0.332186	  0.098701	
6.65625	  0.648913	  0.331476	  0.098172	
6.72782	  0.689468	  0.332190	  0.099169	
6.7994	  0.729242	  0.338381	  0.101442	
6.87097	  0.746141	  0.342832	  0.103270	
6.94254	  0.726632	  0.337654	  0.104134	
7.01411	  0.687118	  0.329197	  0.105703	
7.08569	  0.657886	  0.331005	  0.109405	
7.15726	  0.650258	  0.346569	  0.114603	
7.22883	  0.656513	  0.368858	  0.119664	
7.3004	  0.669753	  0.389317	  0.122502	
7.37198	  0.685998	  0.402469	  0.120835	
7.44355	  0.701291	  0.408377	  0.115108	
7.51512	  0.715974	  0.410389	  0.109455	
7.58669	  0.729458	  0.411094	  0.107726	
7.65827	  0.736371	  0.413753	  0.110276	
7.72984	  0.735216	  0.421787	  0.114634	
7.80141	  0.726566	  0.432314	  0.117782	
7.87298	  0.707778	  0.434217	  0.118091	
7.94456	  0.679729	  0.418729	  0.115906	
8.01613	  0.647511	  0.393431	  0.112351	
8.0877	  0.616807	  0.376793	  0.107966	
8.15927	  0.595113	  0.375511	  0.103387	
8.23085	  0.589448	  0.379365	  0.100450	
8.30242	  0.599278	  0.377878	  0.100394	
8.37399	  0.610982	  0.368786	  0.101654	
8.44556	  0.609640	  0.353866	  0.101852	
8.51714	  0.599868	  0.336121	  0.100897	
8.58871	  0.597480	  0.319320	  0.100108	
8.66028	  0.603574	  0.306334	  0.100152	
8.73185	  0.604462	  0.297539	  0.101320	
8.80343	  0.592029	  0.291837	  0.103407	
8.875	  0.572717	  0.288358	  0.104402	
8.94657	  0.556437	  0.286853	  0.101824	
9.01815	  0.544878	  0.286627	  0.095726	
9.08972	  0.536539	  0.284883	  0.089194	
9.16129	  0.533787	  0.280548	  0.086148	
9.23286	  0.540123	  0.279224	  0.088208	
9.30444	  0.560032	  0.286925	  0.093216	
9.37601	  0.595538	  0.302985	  0.097227	
9.44758	  0.634622	  0.324633	  0.098093	
9.51915	  0.656113	  0.348040	  0.097179	
9.59073	  0.651224	  0.362527	  0.097391	
9.6623	  0.632080	  0.358216	  0.099729	
9.73387	  0.615724	  0.337470	  0.102337	
9.80544	  0.601599	  0.308106	  0.102359	
9.87702	  0.569774	  0.273956	  0.097917	
9.94859	  0.501568	  0.237061	  0.088502	
10.0202	  0.400583	  0.199957	  0.075230	
10.0917	  0.293644	  0.164740	  0.061901	
10.1633	  0.208269	  0.133426	  0.054195	
10.2349	  0.153638	  0.108269	  0.055309	
10.3065	  0.123693	  0.090272	  0.061442	
10.378	  0.106628	  0.078247	  0.064365	
10.4496	  0.093089	  0.071636	  0.061018	
10.5212	  0.082487	  0.071717	  0.056545	
10.5927	  0.078615	  0.077097	  0.055965	
10.6643	  0.081520	  0.082074	  0.058015	
10.7359	  0.087100	  0.081623	  0.057784	
10.8075	  0.091194	  0.075781	  0.052292	
10.879	  0.091867	  0.068925	  0.043189	
10.9506	  0.088912	  0.064854	  0.034751	
11.0222	  0.083276	  0.062748	  0.030222	
11.0937	  0.077568	  0.059532	  0.029339	
11.1653	  0.075350	  0.054713	  0.028683	
11.2369	  0.078275	  0.050026	  0.025792	
11.3085	  0.083951	  0.046737	  0.021881	
11.38	  0.087673	  0.045853	  0.019351	
11.4516	  0.086577	  0.048673	  0.018623	
11.5232	  0.081343	  0.055674	  0.018378	
11.5948	  0.074234	  0.065497	  0.017695	
